<svg width="84" height="83" viewBox="0 0 84 83" fill="none" xmlns="http://www.w3.org/2000/svg">
<g clip-path="url(#clip0_40_1438)">
<path d="M59.5555 24.2476C60.0568 26.2852 60.073 28.4199 59.6363 30.4737C59.1835 32.3982 58.2617 34.4682 56.968 36.1177C54.623 38.7861 51.6959 40.4841 48.1543 41.2927V76.5313C48.1543 78.2455 47.6206 79.895 46.4077 81.1079C45.1948 82.3208 43.5453 83 41.6855 83C40.1169 83 38.4706 82.3208 37.2561 81.1079C36.0432 79.895 35.2168 78.2455 35.2168 76.5313V41.2927C31.9598 40.6459 28.8871 38.8346 26.678 36.1662C25.3665 34.5167 24.451 32.5923 24.0024 30.5223C23.5538 28.4523 23.5841 26.3176 24.091 24.2637L28.9761 2.21338C29.1135 1.59044 29.4774 1.04043 29.9965 0.668966C30.514 0.297336 31.1528 0.130491 31.7867 0.200402C32.4223 0.269553 33.0109 0.57242 33.4379 1.05046C33.8648 1.52834 34.0977 2.14708 34.0945 2.78748V26.075H36.9035L39.6673 2.12605C39.732 1.59642 39.9875 1.109 40.3918 0.755324C40.7799 0.401806 41.2974 0.206466 41.6855 0.206466C42.3648 0.206466 42.8823 0.401806 43.2704 0.755324C43.6747 1.109 43.7879 1.59642 43.9981 2.12605L46.7635 26.075H49.448V2.78748C49.448 2.15193 49.82 1.53707 50.0949 1.05984C50.6609 0.582608 51.2431 0.276636 51.8738 0.200402C52.5045 0.131057 53.0059 0.300085 53.6689 0.674788C54.1864 1.04949 54.5422 1.60322 54.6877 2.22955L59.5555 24.2476Z" fill="#E8EAF4"/>
<mask id="mask0_40_1438" style="mask-type:alpha" maskUnits="userSpaceOnUse" x="23" y="0" width="37" height="83">
<path d="M59.5555 24.2476C60.0568 26.2853 60.073 28.42 59.6363 30.4738C59.1835 32.3983 58.2617 34.4683 56.968 36.1178C54.623 38.7862 51.6959 40.4842 48.1543 41.2928V76.5313C48.1543 78.2455 47.6206 79.8951 46.4077 81.108C45.1948 82.3209 43.5453 83.0001 41.6855 83.0001C40.1169 83.0001 38.4706 82.3209 37.2561 81.108C36.0432 79.8951 35.2168 78.2455 35.2168 76.5313V41.2928C31.9598 40.6459 28.8871 38.8347 26.678 36.1663C25.3665 34.5168 24.451 32.5923 24.0024 30.5223C23.5538 28.4523 23.5841 26.3176 24.091 24.2638L28.9761 2.21344C29.1135 1.5905 29.4774 1.0405 29.9965 0.669027C30.514 0.297397 31.1528 0.130552 31.7867 0.200463C32.4223 0.269614 33.0109 0.572481 33.4379 1.05052C33.8648 1.5284 34.0977 2.14714 34.0945 2.78754V26.0751H36.9035L39.6673 2.12611C39.732 1.59648 39.9875 1.10906 40.3918 0.755385C40.7799 0.401867 41.2974 0.206527 41.6855 0.206527C42.3648 0.206527 42.8823 0.401867 43.2704 0.755385C43.6747 1.10906 43.7879 1.59648 43.9981 2.12611L46.7635 26.0751H49.448V2.78754C49.448 2.15199 49.82 1.53713 50.0949 1.0599C50.6609 0.582669 51.2431 0.276697 51.8738 0.200463C52.5045 0.131118 53.0059 0.300146 53.6689 0.674849C54.1864 1.04955 54.5422 1.60328 54.6877 2.22961L59.5555 24.2476Z" fill="#E8EAF4"/>
</mask>
<g mask="url(#mask0_40_1438)">
<rect x="10.4868" y="5.75348" width="57.8316" height="11.4318" transform="rotate(-15 10.4868 5.75348)" fill="#FF62C0"/>
<rect x="10.4868" y="17.1853" width="57.8316" height="11.4318" transform="rotate(-15 10.4868 17.1853)" fill="#AE47FF"/>
<rect x="10.4868" y="28.6171" width="57.8316" height="11.4318" transform="rotate(-15 10.4868 28.6171)" fill="#4B47FF"/>
<rect x="10.4868" y="40.049" width="57.8316" height="11.4318" transform="rotate(-15 10.4868 40.049)" fill="#475AFF"/>
<rect x="10.4868" y="51.4808" width="57.8316" height="11.4318" transform="rotate(-15 10.4868 51.4808)" fill="#47C8FF"/>
<rect x="10.4868" y="62.9127" width="57.8316" height="11.4318" transform="rotate(-15 10.4868 62.9127)" fill="#47FFFF"/>
<rect x="10.4868" y="74.3445" width="57.8316" height="11.4318" transform="rotate(-15 10.4868 74.3445)" fill="#CFFF47"/>
<rect x="10.4868" y="85.7763" width="57.8316" height="11.4318" transform="rotate(-15 10.4868 85.7763)" fill="#FF9447"/>
</g>
</g>
<defs>
<clipPath id="clip0_40_1438">
<rect width="82.8" height="82.8" fill="white" transform="translate(0.399902 0.200012)"/>
</clipPath>
</defs>
</svg>
