<svg width="87" height="141" viewBox="0 0 87 141" fill="none" xmlns="http://www.w3.org/2000/svg">
<g clip-path="url(#clip0_40_1437)">
<path d="M61.5555 24.2476C62.0568 26.2852 62.073 28.4199 61.6363 30.4737C61.1835 32.3982 60.2617 34.4682 58.968 36.1177C56.623 38.7861 53.6959 40.4841 50.1543 41.2927V76.5313C50.1543 78.2455 49.6206 79.895 48.4077 81.1079C47.1948 82.3208 45.5453 83 43.6855 83C42.1169 83 40.4706 82.3208 39.2561 81.1079C38.0432 79.895 37.2168 78.2455 37.2168 76.5313V41.2927C33.9598 40.6459 30.8871 38.8346 28.678 36.1662C27.3665 34.5167 26.451 32.5923 26.0024 30.5223C25.5538 28.4523 25.5841 26.3176 26.091 24.2637L30.9761 2.21338C31.1135 1.59044 31.4774 1.04043 31.9965 0.668966C32.514 0.297336 33.1528 0.130491 33.7867 0.200402C34.4223 0.269553 35.0109 0.57242 35.4379 1.05046C35.8648 1.52834 36.0977 2.14708 36.0945 2.78748V26.075H38.9035L41.6673 2.12605C41.732 1.59642 41.9875 1.109 42.3918 0.755324C42.7799 0.401806 43.2974 0.206466 43.6855 0.206466C44.3648 0.206466 44.8823 0.401806 45.2704 0.755324C45.6747 1.109 45.7879 1.59642 45.9981 2.12605L48.7635 26.075H51.448V2.78748C51.448 2.15193 51.82 1.53707 52.0949 1.05984C52.6609 0.582608 53.2431 0.276636 53.8738 0.200402C54.5045 0.131057 55.0059 0.300085 55.6689 0.674788C56.1864 1.04949 56.5422 1.60322 56.6877 2.22955L61.5555 24.2476Z" fill="#E8EAF4"/>
<mask id="mask0_40_1437" style="mask-type:alpha" maskUnits="userSpaceOnUse" x="25" y="0" width="37" height="83">
<path d="M61.5555 24.2476C62.0568 26.2853 62.073 28.42 61.6363 30.4738C61.1835 32.3983 60.2617 34.4683 58.968 36.1178C56.623 38.7862 53.6959 40.4842 50.1543 41.2928V76.5313C50.1543 78.2455 49.6206 79.8951 48.4077 81.108C47.1948 82.3209 45.5453 83.0001 43.6855 83.0001C42.1169 83.0001 40.4706 82.3209 39.2561 81.108C38.0432 79.8951 37.2168 78.2455 37.2168 76.5313V41.2928C33.9598 40.6459 30.8871 38.8347 28.678 36.1663C27.3665 34.5168 26.451 32.5923 26.0024 30.5223C25.5538 28.4523 25.5841 26.3176 26.091 24.2638L30.9761 2.21344C31.1135 1.5905 31.4774 1.0405 31.9965 0.669027C32.514 0.297397 33.1528 0.130552 33.7867 0.200463C34.4223 0.269614 35.0109 0.572481 35.4379 1.05052C35.8648 1.5284 36.0977 2.14714 36.0945 2.78754V26.0751H38.9035L41.6673 2.12611C41.732 1.59648 41.9875 1.10906 42.3918 0.755385C42.7799 0.401867 43.2974 0.206527 43.6855 0.206527C44.3648 0.206527 44.8823 0.401867 45.2704 0.755385C45.6747 1.10906 45.7879 1.59648 45.9981 2.12611L48.7635 26.0751H51.448V2.78754C51.448 2.15199 51.82 1.53713 52.0949 1.0599C52.6609 0.582669 53.2431 0.276697 53.8738 0.200463C54.5045 0.131118 55.0059 0.300146 55.6689 0.674849C56.1864 1.04955 56.5422 1.60328 56.6877 2.22961L61.5555 24.2476Z" fill="#E8EAF4"/>
</mask>
<g mask="url(#mask0_40_1437)">
<rect x="12.4868" y="5.75348" width="57.8316" height="11.4318" transform="rotate(-15 12.4868 5.75348)" fill="#FF62C0"/>
<rect x="12.4868" y="17.1853" width="57.8316" height="11.4318" transform="rotate(-15 12.4868 17.1853)" fill="#AE47FF"/>
<rect x="12.4868" y="28.6171" width="57.8316" height="11.4318" transform="rotate(-15 12.4868 28.6171)" fill="#4B47FF"/>
<rect x="12.4868" y="40.049" width="57.8316" height="11.4318" transform="rotate(-15 12.4868 40.049)" fill="#475AFF"/>
<rect x="12.4868" y="51.4808" width="57.8316" height="11.4318" transform="rotate(-15 12.4868 51.4808)" fill="#47C8FF"/>
<rect x="12.4868" y="62.9127" width="57.8316" height="11.4318" transform="rotate(-15 12.4868 62.9127)" fill="#47FFFF"/>
<rect x="12.4868" y="74.3445" width="57.8316" height="11.4318" transform="rotate(-15 12.4868 74.3445)" fill="#CFFF47"/>
<rect x="12.4868" y="85.7763" width="57.8316" height="11.4318" transform="rotate(-15 12.4868 85.7763)" fill="#FF9447"/>
</g>
</g>
<path d="M0.970703 140.072V116.597H16.0094V120.162H5.22325V126.535H14.9778V130.1H5.22325V140.072H0.970703Z" fill="white"/>
<path d="M41.5054 128.334C41.5054 130.864 41.0316 133.03 40.0841 134.834C39.1442 136.629 37.8604 138.005 36.2327 138.96C34.6127 139.915 32.7749 140.393 30.7193 140.393C28.6637 140.393 26.8221 139.915 25.1944 138.96C23.5744 137.997 22.2906 136.618 21.343 134.822C20.4031 133.019 19.9332 130.856 19.9332 128.334C19.9332 125.805 20.4031 123.642 21.343 121.847C22.2906 120.043 23.5744 118.664 25.1944 117.709C26.8221 116.753 28.6637 116.276 30.7193 116.276C32.7749 116.276 34.6127 116.753 36.2327 117.709C37.8604 118.664 39.1442 120.043 40.0841 121.847C41.0316 123.642 41.5054 125.805 41.5054 128.334ZM37.2299 128.334C37.2299 126.554 36.951 125.052 36.3932 123.83C35.843 122.599 35.0788 121.671 34.1007 121.044C33.1226 120.41 31.9954 120.093 30.7193 120.093C29.4431 120.093 28.316 120.41 27.3379 121.044C26.3598 121.671 25.5918 122.599 25.0339 123.83C24.4837 125.052 24.2086 126.554 24.2086 128.334C24.2086 130.115 24.4837 131.62 25.0339 132.851C25.5918 134.073 26.3598 135.002 27.3379 135.636C28.316 136.262 29.4431 136.576 30.7193 136.576C31.9954 136.576 33.1226 136.262 34.1007 135.636C35.0788 135.002 35.843 134.073 36.3932 132.851C36.951 131.62 37.2299 130.115 37.2299 128.334Z" fill="white"/>
<path d="M46.1714 140.072V116.597H54.9745C56.7779 116.597 58.291 116.91 59.5136 117.537C60.7439 118.163 61.6724 119.042 62.299 120.173C62.9333 121.296 63.2504 122.607 63.2504 124.105C63.2504 125.61 62.9294 126.917 62.2875 128.025C61.6533 129.125 60.7172 129.977 59.4792 130.581C58.2413 131.177 56.7206 131.475 54.9172 131.475H48.6473V127.945H54.3441C55.3986 127.945 56.2621 127.799 56.9346 127.509C57.6071 127.211 58.1038 126.779 58.4247 126.214C58.7533 125.641 58.9176 124.938 58.9176 124.105C58.9176 123.272 58.7533 122.561 58.4247 121.973C58.0961 121.377 57.5956 120.926 56.9231 120.62C56.2507 120.307 55.3833 120.15 54.3212 120.15H50.424V140.072H46.1714ZM58.2986 129.435L64.1101 140.072H59.3646L53.6563 129.435H58.2986Z" fill="white"/>
<path d="M67.8103 140.072V116.597H72.0629V127.383H72.3495L81.5079 116.597H86.7004L77.6222 127.131L86.7806 140.072H81.6684L74.6649 130.008L72.0629 133.08V140.072H67.8103Z" fill="white"/>
<mask id="mask1_40_1437" style="mask-type:alpha" maskUnits="userSpaceOnUse" x="0" y="116" width="87" height="25">
<path d="M0.970703 140.072V116.597H16.0094V120.162H5.22325V126.535H14.9778V130.1H5.22325V140.072H0.970703Z" fill="white"/>
<path d="M41.5054 128.334C41.5054 130.864 41.0316 133.03 40.0841 134.834C39.1442 136.629 37.8604 138.005 36.2327 138.96C34.6127 139.915 32.7749 140.393 30.7193 140.393C28.6637 140.393 26.8221 139.915 25.1944 138.96C23.5744 137.997 22.2906 136.618 21.343 134.822C20.4031 133.019 19.9332 130.856 19.9332 128.334C19.9332 125.805 20.4031 123.642 21.343 121.847C22.2906 120.043 23.5744 118.664 25.1944 117.709C26.8221 116.753 28.6637 116.276 30.7193 116.276C32.7749 116.276 34.6127 116.753 36.2327 117.709C37.8604 118.664 39.1442 120.043 40.0841 121.847C41.0316 123.642 41.5054 125.805 41.5054 128.334ZM37.2299 128.334C37.2299 126.554 36.951 125.052 36.3932 123.83C35.843 122.599 35.0788 121.671 34.1007 121.044C33.1226 120.41 31.9954 120.093 30.7193 120.093C29.4431 120.093 28.316 120.41 27.3379 121.044C26.3598 121.671 25.5918 122.599 25.0339 123.83C24.4837 125.052 24.2086 126.554 24.2086 128.334C24.2086 130.115 24.4837 131.62 25.0339 132.851C25.5918 134.073 26.3598 135.002 27.3379 135.636C28.316 136.262 29.4431 136.576 30.7193 136.576C31.9954 136.576 33.1226 136.262 34.1007 135.636C35.0788 135.002 35.843 134.073 36.3932 132.851C36.951 131.62 37.2299 130.115 37.2299 128.334Z" fill="white"/>
<path d="M46.1714 140.072V116.597H54.9745C56.7779 116.597 58.291 116.91 59.5136 117.537C60.7439 118.163 61.6724 119.042 62.299 120.173C62.9333 121.296 63.2504 122.607 63.2504 124.105C63.2504 125.61 62.9294 126.917 62.2875 128.025C61.6533 129.125 60.7172 129.977 59.4792 130.581C58.2413 131.177 56.7206 131.475 54.9172 131.475H48.6473V127.945H54.3441C55.3986 127.945 56.2621 127.799 56.9346 127.509C57.6071 127.211 58.1038 126.779 58.4247 126.214C58.7533 125.641 58.9176 124.938 58.9176 124.105C58.9176 123.272 58.7533 122.561 58.4247 121.973C58.0961 121.377 57.5956 120.926 56.9231 120.62C56.2507 120.307 55.3833 120.15 54.3212 120.15H50.424V140.072H46.1714ZM58.2986 129.435L64.1101 140.072H59.3646L53.6563 129.435H58.2986Z" fill="white"/>
<path d="M67.8103 140.072V116.597H72.0629V127.383H72.3495L81.5079 116.597H86.7004L77.6222 127.131L86.7806 140.072H81.6684L74.6649 130.008L72.0629 133.08V140.072H67.8103Z" fill="white"/>
</mask>
<g mask="url(#mask1_40_1437)">
<rect opacity="0.4" width="94.7315" height="6.86134" transform="matrix(0.997744 -0.0671379 0.729637 0.683834 -6 115.649)" fill="#AE47FF"/>
<rect opacity="0.4" width="94.7315" height="6.86134" transform="matrix(0.997744 -0.0671379 0.729637 0.683834 -6 120.507)" fill="#4B47FF"/>
<rect opacity="0.4" width="94.7315" height="6.86134" transform="matrix(0.997744 -0.0671379 0.729637 0.683834 -6 125.364)" fill="#475AFF"/>
<rect opacity="0.4" width="94.7315" height="6.86134" transform="matrix(0.997744 -0.0671379 0.729637 0.683834 -6 130.222)" fill="#47C8FF"/>
<rect opacity="0.4" width="94.7315" height="6.86134" transform="matrix(0.997744 -0.0671379 0.729637 0.683834 -6 135.079)" fill="#47FFFF"/>
<rect opacity="0.4" width="94.7315" height="6.86134" transform="matrix(0.997744 -0.0671379 0.729637 0.683834 -6 139.937)" fill="#CFFF47"/>
<rect opacity="0.4" width="94.7315" height="6.86134" transform="matrix(0.997744 -0.0671379 0.729637 0.683834 -6 144.794)" fill="#FF9447"/>
</g>
<defs>
<clipPath id="clip0_40_1437">
<rect width="82.8" height="82.8" fill="white" transform="translate(2.3999 0.200012)"/>
</clipPath>
</defs>
</svg>
